<svg width="90" height="81" viewBox="0 0 90 81" fill="none" xmlns="http://www.w3.org/2000/svg">
<path d="M42.4507 0.0595093C39.2388 0.338806 36.4712 1.22748 34.2496 2.66205L33.3355 3.25873L32.7515 2.99213C31.6089 2.49701 31.1646 2.40814 29.6285 2.40814C27.7876 2.40814 26.6705 2.70013 24.9439 3.58881C22.5445 4.82025 20.2847 6.8642 17.606 10.2031C12.566 16.4999 10.8648 22.0224 12.8326 25.7294C14.0386 28.0146 16.2349 29.6269 18.8374 30.1474C19.2564 30.2363 19.6626 30.3251 19.7388 30.3378C19.8404 30.3632 19.815 30.706 19.6499 31.5058C19.3199 33.1181 19.1548 34.54 19.0787 36.622C18.7359 44.747 22.0367 50.6122 28.7144 53.7607C31.6724 55.1572 35.8238 56.122 39.7847 56.3632C40.483 56.4013 41.3843 56.4648 41.7906 56.5029L42.5142 56.5663V49.9013V43.2236L42.1714 43.0204C40.4195 41.9413 39.1753 40.748 38.3248 39.288C37.1314 37.2822 37.1822 35.2128 38.4771 34.0068C39.5816 32.9658 41.0289 32.6357 44.5455 32.6357C48.0621 32.6357 49.5093 32.9658 50.6138 34.0068C51.9087 35.2128 51.9595 37.2822 50.7662 39.288C49.9156 40.748 48.6714 41.9413 46.9322 43.0204L46.5767 43.2236V49.9013V56.5663L47.313 56.5029C47.7066 56.4648 48.608 56.4013 49.3062 56.3632C53.2671 56.122 57.4185 55.1572 60.3765 53.7607C67.0542 50.6122 70.355 44.747 70.0123 36.622C69.9361 34.54 69.771 33.1181 69.441 31.5058C69.2759 30.706 69.2505 30.3632 69.3521 30.3378C69.4283 30.3251 69.8345 30.2363 70.2535 30.1474C72.856 29.6269 75.0523 28.0146 76.2583 25.7294C78.2261 22.0224 76.5249 16.4999 71.4849 10.2031C68.8062 6.8642 66.5464 4.82025 64.147 3.58881C62.4205 2.70013 61.3033 2.40814 59.4624 2.40814C57.9263 2.40814 57.482 2.49701 56.3394 2.99213L55.7554 3.25873L54.8414 2.66205C52.3023 1.01166 49.2046 0.148376 45.3707 0.0214233C44.3931 -0.0166626 43.0855 -0.00396729 42.4507 0.0595093ZM38.9087 21.4003C39.3658 21.5654 40.0005 22.1874 40.2417 22.7206C41.0923 24.5742 39.4292 26.6308 37.4107 26.1992C36.3189 25.9579 35.4048 24.8408 35.4048 23.7236C35.4048 23.5712 35.4683 23.2665 35.5445 23.0253C36.0396 21.5781 37.4869 20.8798 38.9087 21.4003ZM52.2896 21.5019C53.7496 22.2509 54.0923 24.2187 52.9751 25.4501C51.8707 26.6689 49.979 26.5292 49.0269 25.1581C48.7222 24.7138 48.6714 24.5234 48.6714 23.749C48.6714 22.9999 48.7222 22.7714 48.9761 22.3906C49.7632 21.2353 51.0835 20.8798 52.2896 21.5019Z" fill="#333333"/>
<path d="M21.8555 66.4754H17.8498C17.8214 66.144 17.7456 65.8433 17.6225 65.5734C17.5041 65.3036 17.3384 65.0716 17.1254 64.8774C16.917 64.6786 16.6637 64.527 16.3654 64.4229C16.0671 64.314 15.7286 64.2595 15.3498 64.2595C14.6869 64.2595 14.1258 64.4205 13.6665 64.7425C13.212 65.0645 12.8664 65.5261 12.6296 66.1274C12.3976 66.7288 12.2816 67.4508 12.2816 68.2936C12.2816 69.1838 12.4 69.9295 12.6367 70.5308C12.8782 71.1274 13.2262 71.5772 13.6808 71.8803C14.1353 72.1786 14.6822 72.3277 15.3214 72.3277C15.686 72.3277 16.0127 72.2827 16.3015 72.1928C16.5903 72.0981 16.8413 71.9631 17.0543 71.7879C17.2674 71.6127 17.4402 71.402 17.5728 71.1558C17.7101 70.9049 17.8024 70.6232 17.8498 70.3107L21.8555 70.3391C21.8081 70.9546 21.6353 71.582 21.337 72.2212C21.0387 72.8556 20.6149 73.4428 20.0657 73.9825C19.5212 74.5176 18.8465 74.9484 18.0415 75.2752C17.2366 75.6019 16.3015 75.7652 15.2362 75.7652C13.9009 75.7652 12.703 75.4788 11.6424 74.9058C10.5865 74.3329 9.75083 73.4901 9.1353 72.3774C8.5245 71.2647 8.21911 69.9035 8.21911 68.2936C8.21911 66.6743 8.53161 65.3107 9.15661 64.2027C9.78161 63.09 10.6244 62.2496 11.685 61.6814C12.7456 61.1085 13.9293 60.822 15.2362 60.822C16.1547 60.822 16.9999 60.9475 17.7717 61.1984C18.5434 61.4494 19.2205 61.8163 19.8029 62.2993C20.3853 62.7775 20.8541 63.367 21.2092 64.0678C21.5643 64.7685 21.7797 65.5711 21.8555 66.4754ZM32.255 61.0209H36.2038V70.3391C36.2038 71.447 35.9387 72.4058 35.4084 73.2155C34.8828 74.0204 34.1489 74.643 33.2067 75.0834C32.2644 75.519 31.1707 75.7368 29.9254 75.7368C28.6707 75.7368 27.5722 75.519 26.63 75.0834C25.6877 74.643 24.9538 74.0204 24.4283 73.2155C23.9074 72.4058 23.647 71.447 23.647 70.3391V61.0209H27.5959V69.9982C27.5959 70.448 27.6953 70.8504 27.8942 71.2055C28.093 71.5559 28.3677 71.8305 28.718 72.0294C29.0732 72.2283 29.4756 72.3277 29.9254 72.3277C30.38 72.3277 30.7824 72.2283 31.1328 72.0294C31.4832 71.8305 31.7578 71.5559 31.9567 71.2055C32.1555 70.8504 32.255 70.448 32.255 69.9982V61.0209ZM45.9215 65.5663C45.8836 65.0929 45.7061 64.7235 45.3889 64.4584C45.0764 64.1932 44.6005 64.0607 43.9613 64.0607C43.5541 64.0607 43.2203 64.1104 42.9599 64.2098C42.7042 64.3045 42.5148 64.4347 42.3917 64.6004C42.2686 64.7662 42.2047 64.9555 42.1999 65.1686C42.1905 65.3438 42.2212 65.5024 42.2923 65.6445C42.368 65.7818 42.4864 65.9073 42.6474 66.0209C42.8084 66.1298 43.0143 66.2292 43.2653 66.3192C43.5162 66.4091 43.8145 66.4896 44.1602 66.5607L45.3533 66.8163C46.1583 66.9868 46.8472 67.2117 47.4201 67.4911C47.993 67.7704 48.4618 68.0995 48.8264 68.4783C49.1909 68.8523 49.4585 69.2737 49.6289 69.7425C49.8041 70.2112 49.8941 70.7226 49.8988 71.2766C49.8941 72.233 49.6549 73.0427 49.1815 73.7055C48.708 74.3684 48.0309 74.8727 47.1502 75.2183C46.2743 75.564 45.2208 75.7368 43.9897 75.7368C42.7255 75.7368 41.6223 75.5498 40.68 75.1757C39.7425 74.8017 39.0134 74.2264 38.4925 73.4499C37.9764 72.6686 37.716 71.6696 37.7113 70.4527H41.4613C41.485 70.8978 41.5962 71.2718 41.7951 71.5749C41.994 71.8779 42.2733 72.1075 42.6332 72.2638C42.9978 72.42 43.431 72.4982 43.9329 72.4982C44.3543 72.4982 44.707 72.4461 44.9911 72.3419C45.2752 72.2377 45.4907 72.0933 45.6374 71.9087C45.7842 71.724 45.86 71.5133 45.8647 71.2766C45.86 71.054 45.7866 70.8599 45.6445 70.6942C45.5072 70.5237 45.2799 70.3722 44.9627 70.2396C44.6455 70.1023 44.217 69.9745 43.6772 69.8561L42.2283 69.5436C40.9405 69.2643 39.9248 68.7979 39.1815 68.1445C38.4428 67.4863 38.0759 66.5891 38.0806 65.4527C38.0759 64.5294 38.3221 63.7221 38.8192 63.0308C39.3211 62.3348 40.0148 61.7927 40.9002 61.4044C41.7904 61.0162 42.8107 60.822 43.9613 60.822C45.1355 60.822 46.1512 61.0185 47.0082 61.4115C47.8652 61.8045 48.5257 62.3585 48.9897 63.0734C49.4585 63.7837 49.6952 64.6146 49.6999 65.5663H45.9215ZM64.9805 66.4754H60.9748C60.9464 66.144 60.8706 65.8433 60.7475 65.5734C60.6291 65.3036 60.4634 65.0716 60.2504 64.8774C60.042 64.6786 59.7887 64.527 59.4904 64.4229C59.1921 64.314 58.8536 64.2595 58.4748 64.2595C57.8119 64.2595 57.2508 64.4205 56.7915 64.7425C56.337 65.0645 55.9914 65.5261 55.7546 66.1274C55.5226 66.7288 55.4066 67.4508 55.4066 68.2936C55.4066 69.1838 55.525 69.9295 55.7617 70.5308C56.0032 71.1274 56.3512 71.5772 56.8058 71.8803C57.2603 72.1786 57.8072 72.3277 58.4464 72.3277C58.811 72.3277 59.1377 72.2827 59.4265 72.1928C59.7153 72.0981 59.9663 71.9631 60.1793 71.7879C60.3924 71.6127 60.5652 71.402 60.6978 71.1558C60.8351 70.9049 60.9274 70.6232 60.9748 70.3107L64.9805 70.3391C64.9331 70.9546 64.7603 71.582 64.462 72.2212C64.1637 72.8556 63.7399 73.4428 63.1907 73.9825C62.6462 74.5176 61.9715 74.9484 61.1665 75.2752C60.3616 75.6019 59.4265 75.7652 58.3612 75.7652C57.0259 75.7652 55.828 75.4788 54.7674 74.9058C53.7115 74.3329 52.8758 73.4901 52.2603 72.3774C51.6495 71.2647 51.3441 69.9035 51.3441 68.2936C51.3441 66.6743 51.6566 65.3107 52.2816 64.2027C52.9066 63.09 53.7494 62.2496 54.81 61.6814C55.8706 61.1085 57.0543 60.822 58.3612 60.822C59.2797 60.822 60.1249 60.9475 60.8967 61.1984C61.6684 61.4494 62.3455 61.8163 62.9279 62.2993C63.5103 62.7775 63.9791 63.367 64.3342 64.0678C64.6893 64.7685 64.9047 65.5711 64.9805 66.4754ZM80.8629 68.2936C80.8629 69.9129 80.5481 71.2789 79.9183 72.3916C79.2886 73.4996 78.4387 74.34 77.3686 74.9129C76.2985 75.4811 75.1054 75.7652 73.7891 75.7652C72.4633 75.7652 71.2654 75.4788 70.1953 74.9058C69.13 74.3282 68.2824 73.4854 67.6527 72.3774C67.0277 71.2647 66.7152 69.9035 66.7152 68.2936C66.7152 66.6743 67.0277 65.3107 67.6527 64.2027C68.2824 63.09 69.13 62.2496 70.1953 61.6814C71.2654 61.1085 72.4633 60.822 73.7891 60.822C75.1054 60.822 76.2985 61.1085 77.3686 61.6814C78.4387 62.2496 79.2886 63.09 79.9183 64.2027C80.5481 65.3107 80.8629 66.6743 80.8629 68.2936ZM76.8004 68.2936C76.8004 67.4224 76.6844 66.6885 76.4524 66.0919C76.2251 65.4906 75.8866 65.036 75.4368 64.7283C74.9917 64.4158 74.4425 64.2595 73.7891 64.2595C73.1357 64.2595 72.584 64.4158 72.1342 64.7283C71.6892 65.036 71.3506 65.4906 71.1186 66.0919C70.8913 66.6885 70.7777 67.4224 70.7777 68.2936C70.7777 69.1648 70.8913 69.9011 71.1186 70.5024C71.3506 71.099 71.6892 71.5536 72.1342 71.8661C72.584 72.1738 73.1357 72.3277 73.7891 72.3277C74.4425 72.3277 74.9917 72.1738 75.4368 71.8661C75.8866 71.5536 76.2251 71.099 76.4524 70.5024C76.6844 69.9011 76.8004 69.1648 76.8004 68.2936Z" fill="#333333"/>
</svg>
